PathFileType	4	(X/Y/Z)	C:/Users/beibeiliu/ov580/test_trc\sequence.36_training_dense_right.trc
DataRate	CameraRate	NumFrames	NumMarkers	Units	OrigDataRate	OrigDataStartFrame	OrigNumFrames
120	120	25	19	mm	120	1	57
Frame#	Time	ThumbCMC			ThumbMCP			ThumbIP			ThumbTip			IndexMCP			IndexPIP			IndexTip			MiddleMCP			MiddlePIP			MiddleTip			RingMCP			RingPIP			RingTip			PinkyMCP			PinkyPIP			PinkyTip			BackHand1			BackHand2			BackHand3	
		X0	Y0	Z0	X1	Y1	Z1	X2	Y2	Z2	X3	Y3	Z3	X4	Y4	Z4	X5	Y5	Z5	X6	Y6	Z6	X7	Y7	Z7	X8	Y8	Z8	X9	Y9	Z9	X10	Y10	Z10	X11	Y11	Z11	X12	Y12	Z12	X13	Y13	Z13	X14	Y14	Z14	X15	Y15	Z15	X16	Y16	Z16	X17	Y17	Z17	X18	Y18	Z18	
0	0	138.014	40.4919	123.202	116.069	66.245	106.155	91.5013	63.5278	87.5719	75.7468	39.3982	85.9477	108.904	31.4813	54.678	82.14	49.1614	58.0157	87.8825	55.5445	87.5195	95.6092	11.9644	53.5387	71.2952	33.4422	54.1564	80.7893	38.1174	90.702	85.4685	-0.580639	61.2425	61.6024	19.2015	61.8937	67.5046	32.1006	93.9735	80.3298	-13.5389	75.7566	57.1453	4.66836	70.762	60.6597	24.111	95.641	120.823	-16.3995	101.348	136.964	-19.0477	128.46	146.447	7.22149	109.041	
1	0.00833333	151.631	28.407	118.254	136.698	49.9433	101.901	114.736	48.2389	77.0392	95.05	30.8843	73.7978	134.629	14.7526	52.5763	113.444	39.1304	47.7676	114.087	41.6224	81.9835	121.907	-0.560103	50.5321	99.853	25.3623	46.4093	104.602	30.5511	82.114	106.809	-10.4561	54.2158	83.9265	7.14406	50.4778	90.9456	26.1061	80.9406	95.6017	-21.2904	71.991	78.2116	0.366034	59.6999	86.6417	20.3369	82.8988	127.873	-28.0751	104.885	136.929	-29.6869	134.478	156.702	-9.74167	111.68	
2	0.0166667	166.782	15.887	126.37	153.626	34.4509	98.9653	137.133	34.632	72.5862	117.756	14.8084	70.372	158.361	-4.20673	55.2046	144.003	20.1483	43.3241	135.009	28.7835	75.8384	143.461	-16.4911	48.0224	127.624	9.40649	42.1081	126.557	17.9914	78.8149	126.27	-27.981	55.812	113.005	-5.67056	44.8435	112.783	12.8672	74.5488	114.187	-34.4054	69.1286	100.904	-13.9904	54.0458	104.666	9.69161	72.5774	137.927	-41.3462	108.291	140.208	-42.5458	137.633	166.614	-26.2088	121.12	
3	0.025	180.604	7.78749	128.549	170.651	26.6361	101.676	156.11	20.231	72.0051	136.165	1.36004	66.5199	184.254	-18.9952	64.1999	167.962	6.2476	48.4182	154.848	16.5231	76.4932	164.948	-34.9159	56.738	149.782	-7.68053	44.6276	144.245	5.02967	77.0639	151.533	-42.3995	59.4073	136.662	-17.6497	46.6818	135.901	0.337372	73.9868	135.297	-47.2286	74.2577	126.146	-29.9282	54.0376	126.383	-0.590914	73.6769	156.528	-51.0223	115.996	151.092	-46.3842	147.394	182.973	-32.8199	127.318	
4	0.0333333	193.015	7.62769	132.862	181.535	20.9289	104.186	172.719	13.7468	74.563	155.86	-9.82194	68.0637	205.888	-25.7679	70.8387	193.286	-5.69598	51.5093	172.238	8.47703	74.9572	194.902	-40.8309	69.9895	176.795	-18.172	49.6996	164.425	-0.858172	75.7281	177.32	-51.095	73.2222	165.23	-29.2607	51.6964	155.783	-8.54563	76.6501	158.184	-57.504	83.1345	152.165	-38.2867	57.6037	146.772	-12.3794	75.5752	174.681	-53.7749	128.251	165.586	-51.1772	155.918	194.201	-35.0842	141.486	
5	0.0416667	199.03	14.0443	135.487	187.541	21.0121	106.699	183.396	14.3261	80.7089	176.158	-10.4416	69.4072	229.107	-16.1035	81.5499	209.863	-7.12943	58.0371	188.095	12.336	76.0929	219.01	-37.795	78.8861	200.861	-24.0926	53.8826	180.966	-4.54615	75.7309	207.09	-49.0629	78.3588	189.757	-37.3013	56.3389	175.878	-14.5385	75.2626	188.538	-61.0931	86.6361	181.667	-46.7306	63.9451	164.171	-18.0885	79.1036	195.778	-53.0728	133.368	187.022	-45.09	159.74	212.104	-26.0771	146.014	
6	0.05	198.391	21.8755	138.151	188.621	30.4091	106.885	190.253	20.8284	76.6244	190.844	-5.89471	65.8044	241.865	0.954028	87.3453	224.696	8.12381	61.2184	194.79	9.6564	76.1752	241.114	-18.8617	84.6272	221.108	-13.4438	58.9676	192.69	-2.89975	79.4235	231.306	-40.0249	84.7239	212.687	-32.3275	61.3022	188.585	-16.1819	77.235	217.415	-51.1121	95.9747	204.158	-43.8492	68.4794	182.299	-21.3414	82.2277	218.964	-37.4269	142.625	204.352	-32.4492	166.371	223.306	-7.01056	151.426	
7	0.0583333	189.379	30.6749	140.232	182.242	34.4227	105.78	187.472	26.9097	77.355	198.613	1.22729	64.8267	242.55	23.5262	87.3409	222.684	18.435	62.0908	193.198	16.2622	77.8645	247.188	0.239602	84.12	226.592	-0.162399	59.9773	195.431	-0.703903	83.3335	244.352	-21.4895	85.7992	224.278	-21.1148	62.6304	197.769	-9.90376	76.699	235.364	-36.1617	99.4482	225.548	-33.2728	71.0742	193.053	-20.7456	79.8767	233.694	-19.6404	141.201	213.598	-20.3063	169.239	222.959	12.404	154.51	
8	0.0666667	178.432	31.8834	132.957	166.211	34.4747	102.893	174.159	28.0516	77.2044	190.353	9.19484	62.1755	225.951	39.6716	81.1399	209.298	30.7003	56.9658	186.225	16.047	73.625	239.211	20.7836	81.4214	217.874	10.8038	56.8197	193.14	3.93253	75.465	242.4	2.61796	87.0427	227.195	-4.82999	60.8064	194.836	-7.38528	77.7251	241.618	-17.2995	95.7344	227.867	-17.295	69.2026	197.855	-19.9467	78.7188	233.633	-3.84453	139.782	216.928	-8.26661	164.053	212.151	23.686	150.495	
9	0.075	157.509	30.3591	133.08	148.145	26.9331	99.0013	156.757	22.5257	73.1313	180.46	7.34366	60.0402	203.813	45.9609	74.0629	189.005	34.6966	51.5443	171.016	14.0476	74.9215	219.258	36.4614	71.8756	203.257	16.5687	51.3207	181.29	3.68877	72.5087	230.212	16.8489	80.9423	216.532	4.97321	56.0215	188.369	-5.94467	73.2661	236.453	-2.45093	90.4633	221.832	-8.36037	64.8553	192.032	-13.9806	75.4981	218.811	13.9394	134.647	211.062	5.00907	158.297	198.177	32.4165	146.09	
10	0.0833333	141.485	21.7795	127.728	128.857	13.7865	94.6378	138.201	6.62421	68.2291	167.293	-3.18507	61.8336	172.61	44.5356	69.3932	161.204	21.6668	47.5409	155.965	2.55483	72.7949	194.521	36.817	65.114	186.939	14.5127	45.3181	168.756	-2.85204	72.1274	210.633	23.5753	70.4071	199.262	4.8606	50.6669	176.635	-11.1074	70.985	220.821	7.57298	84.1626	207.449	-3.94456	60.9448	179.695	-18.1748	76.4856	201.36	23.5478	129.836	196.102	16.8263	157.12	174.732	35.0406	138.486	
11	0.0916667	121.354	8.37491	130.647	115.19	-4.68468	100.279	126.688	-12.4141	69.4373	156.202	-16.7958	64.6505	143.6	30.131	61.474	140.474	3.2739	46.4586	135.742	-10.3779	77.034	165.177	29.5691	61.7109	162.167	1.4718	43.1366	149.002	-13.6003	73.3548	186.367	21.1867	65.1174	180.329	-2.92297	48.0897	161.109	-19.1313	72.9933	196.099	10.7362	76.0892	187.89	-11.1294	57.9685	169.201	-27.6639	77.9817	184.223	26.4544	119	178.771	21.3945	149.982	150.095	34.1353	128.776	
12	0.1	103.218	-1.95108	132.857	98.5297	-20.4845	105.258	107.643	-30.1949	80.3632	135.998	-30.7775	71.5915	118.869	12.7911	58.4921	118.48	-15.957	49.7619	114.383	-27.3227	77.9806	140.136	13.2758	54.2853	140.557	-18.0714	47.4517	133.409	-26.4909	79.2833	161.59	8.66394	60.5541	158.024	-20.6975	49.5645	141.617	-32.0989	75.9674	177.463	0.971673	72.8623	167.248	-22.0267	58.361	150.454	-36.9253	81.1401	162.599	23.1215	115.71	161.758	19.01	145.109	130.875	28.0378	130.18	
13	0.108333	93.1524	-6.82271	134.975	81.2973	-29.2779	112.331	90.1891	-39.1362	87.5871	115.042	-42.8976	78.2634	100.914	0.219711	64.5179	96.4538	-29.2277	55.1267	95.3783	-36.2099	90.0059	123.635	0.00481799	58.7665	117.428	-30.2055	48.7096	113.256	-36.3417	87.2875	142.612	-5.90702	58.5098	131.026	-30.3141	50.4885	123.627	-44.971	78.0254	158.904	-12.1775	73.8986	145.187	-38.1666	61.4005	130.49	-47.6143	83.5124	146.383	13.6482	115.603	149.188	14.2151	140.942	116.154	22.186	129.622	
14	0.116667	81.2579	-1.43686	138.11	62.2858	-24.1076	119.947	68.7114	-37.7041	94.3075	97.5584	-45.4854	81.2122	83.129	-0.579	63.1877	75.6508	-30.1401	60.7876	74.4924	-36.714	91.2326	102.666	-5.35542	58.6621	95.9514	-34.5265	51.7938	91.7721	-39.2869	89.9176	125.789	-14.8142	59.6955	109.124	-41.9969	54.6753	99.9192	-47.1154	86.397	139.614	-22.6282	73.1455	126.186	-47.6986	62.0605	108.547	-52.1629	92.5094	140.176	6.2817	110.993	141.228	11.3487	139.837	110.287	20.2065	124.727	
15	0.125	76.4266	13.6433	137.657	55.0554	-6.33948	122.69	50.2255	-22.3029	99.0626	70.0813	-37.4157	83.8049	77.735	10.1041	63.4509	60.7969	-16.1201	59.1669	57.6283	-26.8134	88.5542	94.704	-3.15392	56.4368	75.7974	-28.1139	55.4649	72.6508	-33.7918	88.8794	110.091	-14.238	59.248	95.9407	-40.7444	54.7549	83.2663	-44.6924	88.7758	126.917	-27.057	71.8572	106.613	-48.1353	65.5876	90.0489	-48.2357	94.4816	138.013	4.81894	109.045	142.838	8.87756	134.336	111.897	25.5907	125.553	
16	0.133333	80.4445	22.9263	135.708	51.5351	10.3302	120.676	44.5902	-4.82485	96.0562	52.3902	-23.5694	78.9908	80.4713	18.86	59.6862	59.6175	-1.40017	51.2306	53.1367	-18.2603	81.1564	94.5895	3.94874	56.7236	72.0546	-19.1989	51.2627	67.3087	-29.5141	85.5069	107.63	-12.0182	62.2666	83.4393	-34.9787	58.1945	71.8981	-35.1797	90.3454	121.197	-27.7408	73.4021	93.1157	-43.6753	69.4197	79.3207	-39.3539	97.5409	135.586	6.38408	107.677	142.755	9.73796	135.846	115.235	29.3082	123.464	
17	0.141667	78.9846	28.9862	133.117	55.7228	15.8398	115.642	39.7841	9.64353	96.4321	39.415	-4.08775	74.5696	85.8879	20.2937	57.7594	65.6523	0.426056	46.6736	53.0876	-14.4136	71.7748	95.6335	1.57588	53.7359	71.927	-20.3414	52.4647	62.3545	-23.1096	85.7795	104.608	-11.9596	59.0664	81.2885	-35.6266	61.8899	70.9996	-30.2355	90.1183	115.186	-26.9264	70.5278	89.7445	-42.9318	72.9604	78.8674	-39.4437	102.206	136.451	6.45977	106.478	142.191	10.9892	137.296	113.759	33.3502	122.436	
18	0.15	77.0696	29.025	138.827	57.1952	19.0956	114.605	42.2315	16.6857	94.4992	37.7598	10.0549	68.8326	84.4173	24.3687	61.3309	68.544	2.46518	46.7967	57.7043	-16.1513	76.6724	95.1014	5.4692	53.9539	78.1092	-18.8515	51.813	72.0142	-23.8286	90.1272	111.639	-13.0968	62.6165	86.6201	-33.2587	61.3245	78.1309	-27.3842	95.391	120.1	-24.6503	74.03	92.314	-40.9472	77.1719	87.0397	-35.151	105.078	133.415	12.0818	107.037	136.9	13.0827	138.102	114.593	32.8936	123.931	
19	0.158333	75.4422	25.1046	138.262	60.7345	17.9834	114.42	48.7177	18.1228	94.2024	41.527	17.226	68.7808	82.6557	23.981	66.1232	66.469	0.0679267	51.7983	59.3664	-14.6235	80.4074	99.0332	4.25737	56.7758	80.238	-20.2228	58.0592	77.845	-20.5869	95.5736	109.987	-11.2608	61.4763	88.1859	-30.8431	68.2803	87.6255	-21.8677	102.425	122.284	-19.3599	76.2266	99.9347	-39.4763	81.28	93.6425	-24.6645	111.537	132.818	17.0816	107.759	137.862	15.9202	138.243	112.024	33.1164	129.722	
20	0.166667	77.2912	18.716	138.008	60.2529	14.8152	119.155	45.3677	18.9906	93.7609	46.8799	18.5118	69.3771	83.8623	19.821	65.8283	65.5359	-3.74086	57.0722	65.3705	-15.0049	88.4696	97.4663	8.95624	62.0989	83.2118	-20.8655	60.2327	80.8074	-17.5021	100.98	110.097	-8.74812	64.2682	91.6041	-30.9245	75.9488	96.1008	-22.9192	106.484	125.925	-20.8348	74.9753	106.758	-39.2345	86.9909	105.568	-23.8053	117.548	138.182	17.413	113.989	139.612	16.5896	143.594	105.334	33.7896	128.012	
21	0.175	74.5488	15.9919	138.157	60.9639	9.82271	114.334	45.5939	14.1316	91.3849	43.0773	13.7798	70.726	78.2978	15.0544	64.2864	64.7892	-9.21549	59.8066	69.0993	-15.517	97.3807	95.7131	3.33123	61.6107	79.2381	-24.1852	68.435	84.2583	-18.9942	104.426	110.424	-13.4167	65.4388	95.68	-33.7235	78.8539	99.0727	-21.0195	110.963	122.843	-22.3301	75.2815	105.809	-36.8578	92.4636	107.539	-19.4579	119.333	132.284	20.2451	114.562	136.375	15.5808	143.73	108.168	30.6463	131.699	
22	0.183333	73.679	11.8575	138.406	59.3211	3.82587	117.695	46.1908	8.7781	89.578	40.7931	8.48104	68.1988	72.9398	11.5779	65.3305	62.8598	-16.4235	66.5101	70.7566	-19.2273	98.6653	95.3716	-0.390124	65.0184	81.4078	-29.3858	70.8291	85.0012	-18.622	108.063	109.681	-14.6345	69.0575	92.5965	-36.9356	84.0829	100.251	-20.4908	114.622	117.538	-22.5377	77.2786	106.647	-40.4332	96.465	105.772	-17.4901	121.309	129.706	19.2029	108.551	132.745	14.5423	144.65	104.081	28.3627	127.985	
23	0.191667	70.2831	10.3725	140.917	56.4547	2.15784	116.855	45.6204	4.11253	94.2151	33.9514	5.80338	70.8941	73.4099	11.3473	68.2894	57.4939	-17.9994	67.2525	70.01	-21.0083	98.2564	88.323	-0.462177	65.8065	77.4556	-31.1456	73.3278	82.5695	-22.4072	108.165	103.437	-17.4858	70.099	91.4171	-39.7766	90.2645	96.4942	-15.7999	115.628	115.701	-25.3027	77.178	102.14	-40.5451	94.8442	108.896	-19.0479	121.874	128.546	15.2659	106.642	133.55	15.0166	142.382	102.823	27.9086	131.329	
24	0.2	72.5026	11.6384	137.751	57.3086	3.28446	115.944	40.4662	5.17999	94.8387	33.1863	6.74606	68.7532	68.7071	9.09983	66.4894	58.0809	-17.7531	67.2191	68.003	-18.4052	99.6936	89.9184	-3.75557	65.9182	74.3478	-31.1301	74.5266	82.9165	-19.1488	110.739	97.758	-18.5879	69.2629	89.2836	-38.7826	89.9482	96.3378	-20.4075	115.186	115.471	-24.6636	77.9815	100.039	-39.6457	100.361	109.756	-22.655	122.1	127.135	17.2282	106.199	133.097	14.739	142.293	99.7388	28.2704	130.733	
